<mxfile host="app.diagrams.net" modified="2022-03-07T06:33:08.926Z" agent="5.0 (Windows NT 10.0; Win64; x64) AppleWebKit/537.36 (KHTML, like Gecko) Chrome/99.0.4844.51 Safari/537.36" etag="f7ockofhNuCMaxWC5Mor" version="16.6.6" type="github" pages="5">
  <diagram name="Page-1" id="5d7acffa-a066-3a61-03fe-96351882024d">
    <mxGraphModel dx="782" dy="508" grid="1" gridSize="10" guides="1" tooltips="1" connect="1" arrows="1" fold="1" page="1" pageScale="1" pageWidth="1100" pageHeight="850" background="#ffffff" math="0" shadow="0">
      <root>
        <mxCell id="0" />
        <mxCell id="1" parent="0" />
        <mxCell id="2debaab0fafb2da2-10" value="Object" style="html=1;rounded=0;shadow=0;comic=0;labelBackgroundColor=none;strokeWidth=2;fontFamily=Verdana;fontSize=12;align=center;shape=mxgraph.ios7ui.horLines;" parent="1" vertex="1">
          <mxGeometry x="172.5" y="440" width="135" height="50" as="geometry" />
        </mxCell>
        <mxCell id="21ea969265ad0168-10" value="Function" style="swimlane;html=1;fontStyle=0;childLayout=stackLayout;horizontal=1;startSize=26;fillColor=#e0e0e0;horizontalStack=0;resizeParent=1;resizeLast=0;collapsible=1;marginBottom=0;swimlaneFillColor=#ffffff;align=center;rounded=1;shadow=0;comic=0;labelBackgroundColor=none;strokeWidth=1;fontFamily=Verdana;fontSize=12" parent="1" vertex="1">
          <mxGeometry x="560" y="74" width="160" height="130" as="geometry" />
        </mxCell>
        <mxCell id="21ea969265ad0168-11" value="Row 1" style="text;html=1;strokeColor=none;fillColor=none;spacingLeft=4;spacingRight=4;whiteSpace=wrap;overflow=hidden;rotatable=0;points=[[0,0.5],[1,0.5]];portConstraint=eastwest;" parent="21ea969265ad0168-10" vertex="1">
          <mxGeometry y="26" width="160" height="26" as="geometry" />
        </mxCell>
        <mxCell id="21ea969265ad0168-12" value="Row 2" style="text;html=1;strokeColor=none;fillColor=none;spacingLeft=4;spacingRight=4;whiteSpace=wrap;overflow=hidden;rotatable=0;points=[[0,0.5],[1,0.5]];portConstraint=eastwest;" parent="21ea969265ad0168-10" vertex="1">
          <mxGeometry y="52" width="160" height="26" as="geometry" />
        </mxCell>
        <mxCell id="21ea969265ad0168-52" value="Row 3" style="text;html=1;strokeColor=none;fillColor=none;spacingLeft=4;spacingRight=4;whiteSpace=wrap;overflow=hidden;rotatable=0;points=[[0,0.5],[1,0.5]];portConstraint=eastwest;" parent="21ea969265ad0168-10" vertex="1">
          <mxGeometry y="78" width="160" height="26" as="geometry" />
        </mxCell>
        <mxCell id="21ea969265ad0168-13" value="Row 4" style="text;html=1;strokeColor=none;fillColor=none;spacingLeft=4;spacingRight=4;whiteSpace=wrap;overflow=hidden;rotatable=0;points=[[0,0.5],[1,0.5]];portConstraint=eastwest;" parent="21ea969265ad0168-10" vertex="1">
          <mxGeometry y="104" width="160" height="26" as="geometry" />
        </mxCell>
        <mxCell id="21ea969265ad0168-14" value="Function" style="swimlane;html=1;fontStyle=0;childLayout=stackLayout;horizontal=1;startSize=26;fillColor=#e0e0e0;horizontalStack=0;resizeParent=1;resizeLast=0;collapsible=1;marginBottom=0;swimlaneFillColor=#ffffff;align=center;rounded=1;shadow=0;comic=0;labelBackgroundColor=none;strokeWidth=1;fontFamily=Verdana;fontSize=12" parent="1" vertex="1">
          <mxGeometry x="160" y="266" width="160" height="110" as="geometry" />
        </mxCell>
        <mxCell id="21ea969265ad0168-15" value="Row 1" style="text;html=1;strokeColor=none;fillColor=none;spacingLeft=4;spacingRight=4;whiteSpace=wrap;overflow=hidden;rotatable=0;points=[[0,0.5],[1,0.5]];portConstraint=eastwest;" parent="21ea969265ad0168-14" vertex="1">
          <mxGeometry y="26" width="160" height="26" as="geometry" />
        </mxCell>
        <mxCell id="21ea969265ad0168-16" value="Row 2" style="text;html=1;strokeColor=none;fillColor=none;spacingLeft=4;spacingRight=4;whiteSpace=wrap;overflow=hidden;rotatable=0;points=[[0,0.5],[1,0.5]];portConstraint=eastwest;" parent="21ea969265ad0168-14" vertex="1">
          <mxGeometry y="52" width="160" height="26" as="geometry" />
        </mxCell>
        <mxCell id="21ea969265ad0168-17" value="Row 3" style="text;html=1;strokeColor=none;fillColor=none;spacingLeft=4;spacingRight=4;whiteSpace=wrap;overflow=hidden;rotatable=0;points=[[0,0.5],[1,0.5]];portConstraint=eastwest;" parent="21ea969265ad0168-14" vertex="1">
          <mxGeometry y="78" width="160" height="26" as="geometry" />
        </mxCell>
        <mxCell id="21ea969265ad0168-18" value="Function" style="swimlane;html=1;fontStyle=0;childLayout=stackLayout;horizontal=1;startSize=26;fillColor=#e0e0e0;horizontalStack=0;resizeParent=1;resizeLast=0;collapsible=1;marginBottom=0;swimlaneFillColor=#ffffff;align=center;rounded=1;shadow=0;comic=0;labelBackgroundColor=none;strokeWidth=1;fontFamily=Verdana;fontSize=12" parent="1" vertex="1">
          <mxGeometry x="160" y="570" width="160" height="140" as="geometry" />
        </mxCell>
        <mxCell id="21ea969265ad0168-19" value="Row 1" style="text;html=1;strokeColor=none;fillColor=none;spacingLeft=4;spacingRight=4;whiteSpace=wrap;overflow=hidden;rotatable=0;points=[[0,0.5],[1,0.5]];portConstraint=eastwest;" parent="21ea969265ad0168-18" vertex="1">
          <mxGeometry y="26" width="160" height="26" as="geometry" />
        </mxCell>
        <mxCell id="21ea969265ad0168-20" value="Row 2" style="text;html=1;strokeColor=none;fillColor=none;spacingLeft=4;spacingRight=4;whiteSpace=wrap;overflow=hidden;rotatable=0;points=[[0,0.5],[1,0.5]];portConstraint=eastwest;" parent="21ea969265ad0168-18" vertex="1">
          <mxGeometry y="52" width="160" height="26" as="geometry" />
        </mxCell>
        <mxCell id="21ea969265ad0168-51" value="Row 3" style="text;html=1;strokeColor=none;fillColor=none;spacingLeft=4;spacingRight=4;whiteSpace=wrap;overflow=hidden;rotatable=0;points=[[0,0.5],[1,0.5]];portConstraint=eastwest;" parent="21ea969265ad0168-18" vertex="1">
          <mxGeometry y="78" width="160" height="26" as="geometry" />
        </mxCell>
        <mxCell id="21ea969265ad0168-21" value="Row 4" style="text;html=1;strokeColor=none;fillColor=none;spacingLeft=4;spacingRight=4;whiteSpace=wrap;overflow=hidden;rotatable=0;points=[[0,0.5],[1,0.5]];portConstraint=eastwest;" parent="21ea969265ad0168-18" vertex="1">
          <mxGeometry y="104" width="160" height="26" as="geometry" />
        </mxCell>
        <mxCell id="21ea969265ad0168-22" value="Function" style="swimlane;html=1;fontStyle=0;childLayout=stackLayout;horizontal=1;startSize=26;fillColor=#e0e0e0;horizontalStack=0;resizeParent=1;resizeLast=0;collapsible=1;marginBottom=0;swimlaneFillColor=#ffffff;align=center;rounded=1;shadow=0;comic=0;labelBackgroundColor=none;strokeWidth=1;fontFamily=Verdana;fontSize=12" parent="1" vertex="1">
          <mxGeometry x="560" y="266" width="160" height="84" as="geometry" />
        </mxCell>
        <mxCell id="21ea969265ad0168-23" value="Row 1" style="text;html=1;strokeColor=none;fillColor=none;spacingLeft=4;spacingRight=4;whiteSpace=wrap;overflow=hidden;rotatable=0;points=[[0,0.5],[1,0.5]];portConstraint=eastwest;" parent="21ea969265ad0168-22" vertex="1">
          <mxGeometry y="26" width="160" height="26" as="geometry" />
        </mxCell>
        <mxCell id="21ea969265ad0168-24" value="Row 2" style="text;html=1;strokeColor=none;fillColor=none;spacingLeft=4;spacingRight=4;whiteSpace=wrap;overflow=hidden;rotatable=0;points=[[0,0.5],[1,0.5]];portConstraint=eastwest;" parent="21ea969265ad0168-22" vertex="1">
          <mxGeometry y="52" width="160" height="26" as="geometry" />
        </mxCell>
        <mxCell id="21ea969265ad0168-26" value="Function" style="swimlane;html=1;fontStyle=0;childLayout=stackLayout;horizontal=1;startSize=26;fillColor=#e0e0e0;horizontalStack=0;resizeParent=1;resizeLast=0;collapsible=1;marginBottom=0;swimlaneFillColor=#ffffff;align=center;rounded=1;shadow=0;comic=0;labelBackgroundColor=none;strokeWidth=1;fontFamily=Verdana;fontSize=12" parent="1" vertex="1">
          <mxGeometry x="560" y="570" width="160" height="110" as="geometry" />
        </mxCell>
        <mxCell id="21ea969265ad0168-27" value="Row 1" style="text;html=1;strokeColor=none;fillColor=none;spacingLeft=4;spacingRight=4;whiteSpace=wrap;overflow=hidden;rotatable=0;points=[[0,0.5],[1,0.5]];portConstraint=eastwest;" parent="21ea969265ad0168-26" vertex="1">
          <mxGeometry y="26" width="160" height="26" as="geometry" />
        </mxCell>
        <mxCell id="21ea969265ad0168-28" value="Row 2" style="text;html=1;strokeColor=none;fillColor=none;spacingLeft=4;spacingRight=4;whiteSpace=wrap;overflow=hidden;rotatable=0;points=[[0,0.5],[1,0.5]];portConstraint=eastwest;" parent="21ea969265ad0168-26" vertex="1">
          <mxGeometry y="52" width="160" height="26" as="geometry" />
        </mxCell>
        <mxCell id="21ea969265ad0168-29" value="Row 3" style="text;html=1;strokeColor=none;fillColor=none;spacingLeft=4;spacingRight=4;whiteSpace=wrap;overflow=hidden;rotatable=0;points=[[0,0.5],[1,0.5]];portConstraint=eastwest;" parent="21ea969265ad0168-26" vertex="1">
          <mxGeometry y="78" width="160" height="26" as="geometry" />
        </mxCell>
        <mxCell id="21ea969265ad0168-30" value="Object" style="html=1;rounded=0;shadow=0;comic=0;labelBackgroundColor=none;strokeWidth=2;fontFamily=Verdana;fontSize=12;align=center;shape=mxgraph.ios7ui.horLines;" parent="1" vertex="1">
          <mxGeometry x="380" y="440" width="135" height="50" as="geometry" />
        </mxCell>
        <mxCell id="21ea969265ad0168-31" style="edgeStyle=none;html=1;labelBackgroundColor=none;startFill=0;startSize=8;endFill=1;endSize=8;fontFamily=Verdana;fontSize=12;" parent="1" source="21ea969265ad0168-18" target="2debaab0fafb2da2-10" edge="1">
          <mxGeometry relative="1" as="geometry" />
        </mxCell>
        <mxCell id="21ea969265ad0168-32" style="edgeStyle=none;html=1;labelBackgroundColor=none;startFill=0;startSize=8;endFill=1;endSize=8;fontFamily=Verdana;fontSize=12;" parent="1" source="2debaab0fafb2da2-10" target="21ea969265ad0168-14" edge="1">
          <mxGeometry relative="1" as="geometry" />
        </mxCell>
        <mxCell id="21ea969265ad0168-33" style="edgeStyle=orthogonalEdgeStyle;html=1;labelBackgroundColor=none;startFill=0;startSize=8;endFill=1;endSize=8;fontFamily=Verdana;fontSize=12;exitX=1;exitY=0.25;entryX=1;entryY=0.5;" parent="1" source="21ea969265ad0168-18" target="21ea969265ad0168-17" edge="1">
          <mxGeometry relative="1" as="geometry">
            <Array as="points">
              <mxPoint x="350" y="605" />
              <mxPoint x="350" y="357" />
            </Array>
          </mxGeometry>
        </mxCell>
        <mxCell id="21ea969265ad0168-34" value="" style="edgeStyle=orthogonalEdgeStyle;html=1;labelBackgroundColor=none;startFill=0;startSize=8;endFill=1;endSize=8;fontFamily=Verdana;fontSize=12;" parent="1" source="21ea969265ad0168-30" target="21ea969265ad0168-27" edge="1">
          <mxGeometry x="-0.1342" y="32" relative="1" as="geometry">
            <mxPoint as="offset" />
          </mxGeometry>
        </mxCell>
        <mxCell id="21ea969265ad0168-35" style="edgeStyle=orthogonalEdgeStyle;html=1;labelBackgroundColor=none;startFill=0;startSize=8;endFill=1;endSize=8;fontFamily=Verdana;fontSize=12;" parent="1" source="21ea969265ad0168-14" target="21ea969265ad0168-30" edge="1">
          <mxGeometry relative="1" as="geometry">
            <Array as="points">
              <mxPoint x="448" y="340" />
            </Array>
          </mxGeometry>
        </mxCell>
        <mxCell id="21ea969265ad0168-37" style="edgeStyle=orthogonalEdgeStyle;html=1;labelBackgroundColor=none;startFill=0;startSize=8;endFill=1;endSize=8;fontFamily=Verdana;fontSize=12;" parent="1" source="21ea969265ad0168-26" target="21ea969265ad0168-22" edge="1">
          <mxGeometry relative="1" as="geometry" />
        </mxCell>
        <mxCell id="21ea969265ad0168-38" style="edgeStyle=orthogonalEdgeStyle;html=1;labelBackgroundColor=none;startFill=0;startSize=8;endFill=1;endSize=8;fontFamily=Verdana;fontSize=12;" parent="1" source="21ea969265ad0168-10" target="21ea969265ad0168-22" edge="1">
          <mxGeometry relative="1" as="geometry" />
        </mxCell>
        <mxCell id="21ea969265ad0168-42" style="edgeStyle=orthogonalEdgeStyle;html=1;exitX=1;exitY=0.5;entryX=0;entryY=0.5;labelBackgroundColor=none;startFill=0;startSize=8;endFill=1;endSize=8;fontFamily=Verdana;fontSize=12;" parent="1" source="21ea969265ad0168-16" target="21ea969265ad0168-24" edge="1">
          <mxGeometry relative="1" as="geometry">
            <Array as="points" />
          </mxGeometry>
        </mxCell>
        <mxCell id="21ea969265ad0168-43" style="edgeStyle=orthogonalEdgeStyle;html=1;labelBackgroundColor=none;startFill=0;startSize=8;endFill=1;endSize=8;fontFamily=Verdana;fontSize=12;" parent="1" source="21ea969265ad0168-24" edge="1">
          <mxGeometry relative="1" as="geometry">
            <mxPoint x="880" y="331" as="targetPoint" />
          </mxGeometry>
        </mxCell>
        <mxCell id="21ea969265ad0168-44" style="edgeStyle=orthogonalEdgeStyle;html=1;exitX=1;exitY=0.5;labelBackgroundColor=none;startFill=0;startSize=8;endFill=1;endSize=8;fontFamily=Verdana;fontSize=12;" parent="1" source="21ea969265ad0168-27" edge="1">
          <mxGeometry relative="1" as="geometry">
            <mxPoint x="880" y="609" as="targetPoint" />
          </mxGeometry>
        </mxCell>
        <mxCell id="21ea969265ad0168-45" style="edgeStyle=orthogonalEdgeStyle;html=1;labelBackgroundColor=none;startFill=0;startSize=8;endFill=1;endSize=8;fontFamily=Verdana;fontSize=12;entryX=1;entryY=0.5;" parent="1" target="21ea969265ad0168-28" edge="1">
          <mxGeometry relative="1" as="geometry">
            <mxPoint x="890" y="619" as="targetPoint" />
            <mxPoint x="880" y="635" as="sourcePoint" />
            <Array as="points">
              <mxPoint x="880" y="635" />
            </Array>
          </mxGeometry>
        </mxCell>
        <mxCell id="21ea969265ad0168-46" style="edgeStyle=orthogonalEdgeStyle;html=1;labelBackgroundColor=none;startFill=0;startSize=8;endFill=1;endSize=8;fontFamily=Verdana;fontSize=12;entryX=1;entryY=0.5;" parent="1" target="21ea969265ad0168-29" edge="1">
          <mxGeometry relative="1" as="geometry">
            <mxPoint x="730.1904761904761" y="645.0952380952381" as="targetPoint" />
            <mxPoint x="880" y="661" as="sourcePoint" />
            <Array as="points">
              <mxPoint x="800" y="661" />
              <mxPoint x="800" y="661" />
            </Array>
          </mxGeometry>
        </mxCell>
        <mxCell id="21ea969265ad0168-47" style="edgeStyle=orthogonalEdgeStyle;html=1;exitX=1;exitY=0.5;labelBackgroundColor=none;startFill=0;startSize=8;endFill=1;endSize=8;fontFamily=Verdana;fontSize=12;" parent="1" source="21ea969265ad0168-11" edge="1">
          <mxGeometry relative="1" as="geometry">
            <mxPoint x="880" y="113" as="targetPoint" />
          </mxGeometry>
        </mxCell>
        <mxCell id="21ea969265ad0168-48" style="edgeStyle=orthogonalEdgeStyle;html=1;exitX=1;exitY=0.5;labelBackgroundColor=none;startFill=0;startSize=8;endFill=1;endSize=8;fontFamily=Verdana;fontSize=12;" parent="1" source="21ea969265ad0168-12" edge="1">
          <mxGeometry relative="1" as="geometry">
            <mxPoint x="880" y="139" as="targetPoint" />
          </mxGeometry>
        </mxCell>
        <mxCell id="21ea969265ad0168-49" style="edgeStyle=orthogonalEdgeStyle;html=1;exitX=1;exitY=0.5;labelBackgroundColor=none;startFill=0;startSize=8;endFill=1;endSize=8;fontFamily=Verdana;fontSize=12;" parent="1" source="21ea969265ad0168-52" edge="1">
          <mxGeometry relative="1" as="geometry">
            <mxPoint x="880" y="165" as="targetPoint" />
            <Array as="points" />
          </mxGeometry>
        </mxCell>
        <mxCell id="21ea969265ad0168-50" style="edgeStyle=elbowEdgeStyle;html=1;labelBackgroundColor=none;startFill=0;startSize=8;endFill=1;endSize=8;fontFamily=Verdana;fontSize=12;elbow=vertical;entryX=1.011;entryY=0.152;entryPerimeter=0;" parent="1" target="21ea969265ad0168-10" edge="1">
          <mxGeometry relative="1" as="geometry">
            <mxPoint x="740" y="89" as="targetPoint" />
            <mxPoint x="880" y="94" as="sourcePoint" />
            <Array as="points">
              <mxPoint x="810" y="94" />
            </Array>
          </mxGeometry>
        </mxCell>
      </root>
    </mxGraphModel>
  </diagram>
  <diagram id="NEFC5_riWzsDIuWnUayE" name="Main">
    <mxGraphModel dx="782" dy="508" grid="1" gridSize="10" guides="1" tooltips="1" connect="1" arrows="1" fold="1" page="1" pageScale="1" pageWidth="827" pageHeight="1169" math="0" shadow="0">
      <root>
        <mxCell id="XBM9AIjGbo9Ioxt-2AgH-0" />
        <mxCell id="XBM9AIjGbo9Ioxt-2AgH-1" parent="XBM9AIjGbo9Ioxt-2AgH-0" />
        <mxCell id="5ZwU4GFAY4dAWswxQQot-0" value="Main" style="swimlane;html=1;fontStyle=0;childLayout=stackLayout;horizontal=1;startSize=26;fillColor=#e0e0e0;horizontalStack=0;resizeParent=1;resizeLast=0;collapsible=1;marginBottom=0;swimlaneFillColor=#ffffff;align=center;rounded=1;shadow=0;comic=0;labelBackgroundColor=none;strokeWidth=1;fontFamily=Verdana;fontSize=12" vertex="1" parent="XBM9AIjGbo9Ioxt-2AgH-1">
          <mxGeometry x="40" y="10" width="160" height="110" as="geometry" />
        </mxCell>
        <mxCell id="5ZwU4GFAY4dAWswxQQot-1" value="初始化System" style="text;html=1;strokeColor=none;fillColor=none;spacingLeft=4;spacingRight=4;whiteSpace=wrap;overflow=hidden;rotatable=0;points=[[0,0.5],[1,0.5]];portConstraint=eastwest;" vertex="1" parent="5ZwU4GFAY4dAWswxQQot-0">
          <mxGeometry y="26" width="160" height="26" as="geometry" />
        </mxCell>
        <mxCell id="5ZwU4GFAY4dAWswxQQot-2" value="Row 2" style="text;html=1;strokeColor=none;fillColor=none;spacingLeft=4;spacingRight=4;whiteSpace=wrap;overflow=hidden;rotatable=0;points=[[0,0.5],[1,0.5]];portConstraint=eastwest;" vertex="1" parent="5ZwU4GFAY4dAWswxQQot-0">
          <mxGeometry y="52" width="160" height="26" as="geometry" />
        </mxCell>
        <mxCell id="5ZwU4GFAY4dAWswxQQot-3" value="Row 3" style="text;html=1;strokeColor=none;fillColor=none;spacingLeft=4;spacingRight=4;whiteSpace=wrap;overflow=hidden;rotatable=0;points=[[0,0.5],[1,0.5]];portConstraint=eastwest;" vertex="1" parent="5ZwU4GFAY4dAWswxQQot-0">
          <mxGeometry y="78" width="160" height="26" as="geometry" />
        </mxCell>
      </root>
    </mxGraphModel>
  </diagram>
  <diagram id="SY-_o7IUkK4LBvVgOJHN" name="System">
    <mxGraphModel dx="782" dy="508" grid="1" gridSize="10" guides="1" tooltips="1" connect="1" arrows="1" fold="1" page="1" pageScale="1" pageWidth="827" pageHeight="1169" math="0" shadow="0">
      <root>
        <mxCell id="jMa5dYvX6v_q3Ia01rmw-0" />
        <mxCell id="jMa5dYvX6v_q3Ia01rmw-1" parent="jMa5dYvX6v_q3Ia01rmw-0" />
        <mxCell id="kW41pUX5bKuz9Podp9el-0" value="System类" style="swimlane;html=1;fontStyle=0;childLayout=stackLayout;horizontal=1;startSize=26;fillColor=#e0e0e0;horizontalStack=0;resizeParent=1;resizeLast=0;collapsible=1;marginBottom=0;swimlaneFillColor=#ffffff;align=center;rounded=1;shadow=0;comic=0;labelBackgroundColor=none;strokeWidth=1;fontFamily=Verdana;fontSize=12" vertex="1" parent="jMa5dYvX6v_q3Ia01rmw-1">
          <mxGeometry x="40" y="10" width="220" height="286" as="geometry" />
        </mxCell>
        <mxCell id="kW41pUX5bKuz9Podp9el-1" value="mpVocabulary词袋库" style="text;html=1;strokeColor=none;fillColor=none;spacingLeft=4;spacingRight=4;whiteSpace=wrap;overflow=hidden;rotatable=0;points=[[0,0.5],[1,0.5]];portConstraint=eastwest;" vertex="1" parent="kW41pUX5bKuz9Podp9el-0">
          <mxGeometry y="26" width="220" height="26" as="geometry" />
        </mxCell>
        <mxCell id="kW41pUX5bKuz9Podp9el-2" value="mpKeyFrameDatabase关键帧数据库" style="text;html=1;strokeColor=none;fillColor=none;spacingLeft=4;spacingRight=4;whiteSpace=wrap;overflow=hidden;rotatable=0;points=[[0,0.5],[1,0.5]];portConstraint=eastwest;" vertex="1" parent="kW41pUX5bKuz9Podp9el-0">
          <mxGeometry y="52" width="220" height="26" as="geometry" />
        </mxCell>
        <mxCell id="kW41pUX5bKuz9Podp9el-3" value="mpMap存储地图点以及关键帧" style="text;html=1;strokeColor=none;fillColor=none;spacingLeft=4;spacingRight=4;whiteSpace=wrap;overflow=hidden;rotatable=0;points=[[0,0.5],[1,0.5]];portConstraint=eastwest;" vertex="1" parent="kW41pUX5bKuz9Podp9el-0">
          <mxGeometry y="78" width="220" height="26" as="geometry" />
        </mxCell>
        <mxCell id="snyWjYY8nI6VhSQiQAVx-0" value="mpLocalMapper管理局部地图进行BA" style="text;html=1;strokeColor=none;fillColor=none;spacingLeft=4;spacingRight=4;whiteSpace=wrap;overflow=hidden;rotatable=0;points=[[0,0.5],[1,0.5]];portConstraint=eastwest;" vertex="1" parent="kW41pUX5bKuz9Podp9el-0">
          <mxGeometry y="104" width="220" height="26" as="geometry" />
        </mxCell>
        <mxCell id="snyWjYY8nI6VhSQiQAVx-1" value="mpLoopCloser检测回环" style="text;html=1;strokeColor=none;fillColor=none;spacingLeft=4;spacingRight=4;whiteSpace=wrap;overflow=hidden;rotatable=0;points=[[0,0.5],[1,0.5]];portConstraint=eastwest;" vertex="1" parent="kW41pUX5bKuz9Podp9el-0">
          <mxGeometry y="130" width="220" height="26" as="geometry" />
        </mxCell>
        <mxCell id="snyWjYY8nI6VhSQiQAVx-2" value="mMutexReset,mbReset设置是否reset" style="text;html=1;strokeColor=none;fillColor=none;spacingLeft=4;spacingRight=4;whiteSpace=wrap;overflow=hidden;rotatable=0;points=[[0,0.5],[1,0.5]];portConstraint=eastwest;" vertex="1" parent="kW41pUX5bKuz9Podp9el-0">
          <mxGeometry y="156" width="220" height="26" as="geometry" />
        </mxCell>
        <mxCell id="snyWjYY8nI6VhSQiQAVx-6" value="mMutexMode用于更改模式" style="text;html=1;strokeColor=none;fillColor=none;spacingLeft=4;spacingRight=4;whiteSpace=wrap;overflow=hidden;rotatable=0;points=[[0,0.5],[1,0.5]];portConstraint=eastwest;" vertex="1" parent="kW41pUX5bKuz9Podp9el-0">
          <mxGeometry y="182" width="220" height="26" as="geometry" />
        </mxCell>
        <mxCell id="snyWjYY8nI6VhSQiQAVx-15" value="mpPointCloudMapping存储点云" style="text;html=1;strokeColor=none;fillColor=none;spacingLeft=4;spacingRight=4;whiteSpace=wrap;overflow=hidden;rotatable=0;points=[[0,0.5],[1,0.5]];portConstraint=eastwest;" vertex="1" parent="kW41pUX5bKuz9Podp9el-0">
          <mxGeometry y="208" width="220" height="26" as="geometry" />
        </mxCell>
        <mxCell id="snyWjYY8nI6VhSQiQAVx-16" value="&lt;font color=&quot;#ff1605&quot;&gt;跟踪器mpTracker&lt;/font&gt;" style="text;html=1;strokeColor=none;fillColor=none;spacingLeft=4;spacingRight=4;whiteSpace=wrap;overflow=hidden;rotatable=0;points=[[0,0.5],[1,0.5]];portConstraint=eastwest;" vertex="1" parent="kW41pUX5bKuz9Podp9el-0">
          <mxGeometry y="234" width="220" height="26" as="geometry" />
        </mxCell>
        <mxCell id="snyWjYY8nI6VhSQiQAVx-17" value="&lt;font color=&quot;#ff1605&quot;&gt;mpSegment&lt;/font&gt;" style="text;html=1;strokeColor=none;fillColor=none;spacingLeft=4;spacingRight=4;whiteSpace=wrap;overflow=hidden;rotatable=0;points=[[0,0.5],[1,0.5]];portConstraint=eastwest;" vertex="1" parent="kW41pUX5bKuz9Podp9el-0">
          <mxGeometry y="260" width="220" height="26" as="geometry" />
        </mxCell>
        <mxCell id="snyWjYY8nI6VhSQiQAVx-7" value="System()" style="swimlane;html=1;fontStyle=0;childLayout=stackLayout;horizontal=1;startSize=26;fillColor=#e0e0e0;horizontalStack=0;resizeParent=1;resizeLast=0;collapsible=1;marginBottom=0;swimlaneFillColor=#ffffff;align=center;rounded=1;shadow=0;comic=0;labelBackgroundColor=none;strokeWidth=1;fontFamily=Verdana;fontSize=12" vertex="1" parent="jMa5dYvX6v_q3Ia01rmw-1">
          <mxGeometry x="360" y="10" width="270" height="286" as="geometry" />
        </mxCell>
        <mxCell id="snyWjYY8nI6VhSQiQAVx-8" value="读取词袋库到mpVocabulary中" style="text;html=1;strokeColor=none;fillColor=none;spacingLeft=4;spacingRight=4;whiteSpace=wrap;overflow=hidden;rotatable=0;points=[[0,0.5],[1,0.5]];portConstraint=eastwest;" vertex="1" parent="snyWjYY8nI6VhSQiQAVx-7">
          <mxGeometry y="26" width="270" height="26" as="geometry" />
        </mxCell>
        <mxCell id="snyWjYY8nI6VhSQiQAVx-9" value="创建KeyFrameDatabase" style="text;html=1;strokeColor=none;fillColor=none;spacingLeft=4;spacingRight=4;whiteSpace=wrap;overflow=hidden;rotatable=0;points=[[0,0.5],[1,0.5]];portConstraint=eastwest;" vertex="1" parent="snyWjYY8nI6VhSQiQAVx-7">
          <mxGeometry y="52" width="270" height="26" as="geometry" />
        </mxCell>
        <mxCell id="snyWjYY8nI6VhSQiQAVx-10" value="创建地图mpMap" style="text;html=1;strokeColor=none;fillColor=none;spacingLeft=4;spacingRight=4;whiteSpace=wrap;overflow=hidden;rotatable=0;points=[[0,0.5],[1,0.5]];portConstraint=eastwest;" vertex="1" parent="snyWjYY8nI6VhSQiQAVx-7">
          <mxGeometry y="78" width="270" height="26" as="geometry" />
        </mxCell>
        <mxCell id="snyWjYY8nI6VhSQiQAVx-11" value="创建点云mpPointCloudMapping" style="text;html=1;strokeColor=none;fillColor=none;spacingLeft=4;spacingRight=4;whiteSpace=wrap;overflow=hidden;rotatable=0;points=[[0,0.5],[1,0.5]];portConstraint=eastwest;" vertex="1" parent="snyWjYY8nI6VhSQiQAVx-7">
          <mxGeometry y="104" width="270" height="26" as="geometry" />
        </mxCell>
        <mxCell id="snyWjYY8nI6VhSQiQAVx-12" value="初始化跟踪器mpTracker（主线程）" style="text;html=1;strokeColor=none;fillColor=none;spacingLeft=4;spacingRight=4;whiteSpace=wrap;overflow=hidden;rotatable=0;points=[[0,0.5],[1,0.5]];portConstraint=eastwest;" vertex="1" parent="snyWjYY8nI6VhSQiQAVx-7">
          <mxGeometry y="130" width="270" height="26" as="geometry" />
        </mxCell>
        <mxCell id="snyWjYY8nI6VhSQiQAVx-13" value="初始化局部地图器mpLocalMapper(线程1)" style="text;html=1;strokeColor=none;fillColor=none;spacingLeft=4;spacingRight=4;whiteSpace=wrap;overflow=hidden;rotatable=0;points=[[0,0.5],[1,0.5]];portConstraint=eastwest;" vertex="1" parent="snyWjYY8nI6VhSQiQAVx-7">
          <mxGeometry y="156" width="270" height="26" as="geometry" />
        </mxCell>
        <mxCell id="snyWjYY8nI6VhSQiQAVx-14" value="初始化回环检测器mpLoopCloser（线程2）" style="text;html=1;strokeColor=none;fillColor=none;spacingLeft=4;spacingRight=4;whiteSpace=wrap;overflow=hidden;rotatable=0;points=[[0,0.5],[1,0.5]];portConstraint=eastwest;" vertex="1" parent="snyWjYY8nI6VhSQiQAVx-7">
          <mxGeometry y="182" width="270" height="26" as="geometry" />
        </mxCell>
        <mxCell id="snyWjYY8nI6VhSQiQAVx-18" value="初始化语义分割器mpSegment（线程3）" style="text;html=1;strokeColor=none;fillColor=none;spacingLeft=4;spacingRight=4;whiteSpace=wrap;overflow=hidden;rotatable=0;points=[[0,0.5],[1,0.5]];portConstraint=eastwest;" vertex="1" parent="snyWjYY8nI6VhSQiQAVx-7">
          <mxGeometry y="208" width="270" height="26" as="geometry" />
        </mxCell>
      </root>
    </mxGraphModel>
  </diagram>
  <diagram id="AGhw0_a0rHJUGcJoCUrq" name="KeyFrameDatabase">
    <mxGraphModel dx="782" dy="508" grid="1" gridSize="10" guides="1" tooltips="1" connect="1" arrows="1" fold="1" page="1" pageScale="1" pageWidth="827" pageHeight="1169" math="0" shadow="0">
      <root>
        <mxCell id="iMpm26M5YSjl4dFQ-dUd-0" />
        <mxCell id="iMpm26M5YSjl4dFQ-dUd-1" parent="iMpm26M5YSjl4dFQ-dUd-0" />
        <mxCell id="OT4isPNVGjL9xpg4gE8G-0" value="KeyFrameDatabase类" style="swimlane;html=1;fontStyle=0;childLayout=stackLayout;horizontal=1;startSize=26;fillColor=#e0e0e0;horizontalStack=0;resizeParent=1;resizeLast=0;collapsible=1;marginBottom=0;swimlaneFillColor=#ffffff;align=center;rounded=1;shadow=0;comic=0;labelBackgroundColor=none;strokeWidth=1;fontFamily=Verdana;fontSize=12" vertex="1" parent="iMpm26M5YSjl4dFQ-dUd-1">
          <mxGeometry x="40" y="10" width="220" height="110" as="geometry" />
        </mxCell>
        <mxCell id="OT4isPNVGjL9xpg4gE8G-1" value="关联的词袋库mpVoc" style="text;html=1;strokeColor=none;fillColor=none;spacingLeft=4;spacingRight=4;whiteSpace=wrap;overflow=hidden;rotatable=0;points=[[0,0.5],[1,0.5]];portConstraint=eastwest;" vertex="1" parent="OT4isPNVGjL9xpg4gE8G-0">
          <mxGeometry y="26" width="220" height="26" as="geometry" />
        </mxCell>
        <mxCell id="OT4isPNVGjL9xpg4gE8G-2" value="mvInvertedFile" style="text;html=1;strokeColor=none;fillColor=none;spacingLeft=4;spacingRight=4;whiteSpace=wrap;overflow=hidden;rotatable=0;points=[[0,0.5],[1,0.5]];portConstraint=eastwest;" vertex="1" parent="OT4isPNVGjL9xpg4gE8G-0">
          <mxGeometry y="52" width="220" height="26" as="geometry" />
        </mxCell>
        <mxCell id="OT4isPNVGjL9xpg4gE8G-11" value="mMutex" style="text;html=1;strokeColor=none;fillColor=none;spacingLeft=4;spacingRight=4;whiteSpace=wrap;overflow=hidden;rotatable=0;points=[[0,0.5],[1,0.5]];portConstraint=eastwest;" vertex="1" parent="OT4isPNVGjL9xpg4gE8G-0">
          <mxGeometry y="78" width="220" height="26" as="geometry" />
        </mxCell>
        <mxCell id="OT4isPNVGjL9xpg4gE8G-12" value="KeyFrameDatabase()" style="swimlane;html=1;fontStyle=0;childLayout=stackLayout;horizontal=1;startSize=26;fillColor=#e0e0e0;horizontalStack=0;resizeParent=1;resizeLast=0;collapsible=1;marginBottom=0;swimlaneFillColor=#ffffff;align=center;rounded=1;shadow=0;comic=0;labelBackgroundColor=none;strokeWidth=1;fontFamily=Verdana;fontSize=12" vertex="1" parent="iMpm26M5YSjl4dFQ-dUd-1">
          <mxGeometry x="330" y="10" width="270" height="110" as="geometry" />
        </mxCell>
        <mxCell id="OT4isPNVGjL9xpg4gE8G-13" value="初始化词袋库mpVoc" style="text;html=1;strokeColor=none;fillColor=none;spacingLeft=4;spacingRight=4;whiteSpace=wrap;overflow=hidden;rotatable=0;points=[[0,0.5],[1,0.5]];portConstraint=eastwest;" vertex="1" parent="OT4isPNVGjL9xpg4gE8G-12">
          <mxGeometry y="26" width="270" height="26" as="geometry" />
        </mxCell>
        <mxCell id="OT4isPNVGjL9xpg4gE8G-14" value="根据词袋库voc的size()初始化mvInvertedFile大小" style="text;html=1;strokeColor=none;fillColor=none;spacingLeft=4;spacingRight=4;whiteSpace=wrap;overflow=hidden;rotatable=0;points=[[0,0.5],[1,0.5]];portConstraint=eastwest;" vertex="1" parent="OT4isPNVGjL9xpg4gE8G-12">
          <mxGeometry y="52" width="270" height="48" as="geometry" />
        </mxCell>
      </root>
    </mxGraphModel>
  </diagram>
  <diagram id="HXUh8lzKpRctUZbhuzFW" name="Map">
    <mxGraphModel dx="782" dy="508" grid="1" gridSize="10" guides="1" tooltips="1" connect="1" arrows="1" fold="1" page="1" pageScale="1" pageWidth="827" pageHeight="1169" math="0" shadow="0">
      <root>
        <mxCell id="5srHFtmBPw0Hif0gjCAh-0" />
        <mxCell id="5srHFtmBPw0Hif0gjCAh-1" parent="5srHFtmBPw0Hif0gjCAh-0" />
        <mxCell id="BTc3utKMtgOVJJnXJlWc-0" value="Map类" style="swimlane;html=1;fontStyle=0;childLayout=stackLayout;horizontal=1;startSize=26;fillColor=#e0e0e0;horizontalStack=0;resizeParent=1;resizeLast=0;collapsible=1;marginBottom=0;swimlaneFillColor=#ffffff;align=center;rounded=1;shadow=0;comic=0;labelBackgroundColor=none;strokeWidth=1;fontFamily=Verdana;fontSize=12" vertex="1" parent="5srHFtmBPw0Hif0gjCAh-1">
          <mxGeometry x="40" y="10" width="220" height="286" as="geometry" />
        </mxCell>
        <mxCell id="BTc3utKMtgOVJJnXJlWc-1" value="mspMapPoints存储地图点的集合" style="text;html=1;strokeColor=none;fillColor=none;spacingLeft=4;spacingRight=4;whiteSpace=wrap;overflow=hidden;rotatable=0;points=[[0,0.5],[1,0.5]];portConstraint=eastwest;" vertex="1" parent="BTc3utKMtgOVJJnXJlWc-0">
          <mxGeometry y="26" width="220" height="26" as="geometry" />
        </mxCell>
        <mxCell id="BTc3utKMtgOVJJnXJlWc-2" value="mspKeyFrames存储关键帧的集合" style="text;html=1;strokeColor=none;fillColor=none;spacingLeft=4;spacingRight=4;whiteSpace=wrap;overflow=hidden;rotatable=0;points=[[0,0.5],[1,0.5]];portConstraint=eastwest;" vertex="1" parent="BTc3utKMtgOVJJnXJlWc-0">
          <mxGeometry y="52" width="220" height="26" as="geometry" />
        </mxCell>
        <mxCell id="BTc3utKMtgOVJJnXJlWc-3" value="mvpReferenceMapPoints向量" style="text;html=1;strokeColor=none;fillColor=none;spacingLeft=4;spacingRight=4;whiteSpace=wrap;overflow=hidden;rotatable=0;points=[[0,0.5],[1,0.5]];portConstraint=eastwest;" vertex="1" parent="BTc3utKMtgOVJJnXJlWc-0">
          <mxGeometry y="78" width="220" height="26" as="geometry" />
        </mxCell>
        <mxCell id="BTc3utKMtgOVJJnXJlWc-4" value="mnMaxKFid" style="text;html=1;strokeColor=none;fillColor=none;spacingLeft=4;spacingRight=4;whiteSpace=wrap;overflow=hidden;rotatable=0;points=[[0,0.5],[1,0.5]];portConstraint=eastwest;" vertex="1" parent="BTc3utKMtgOVJJnXJlWc-0">
          <mxGeometry y="104" width="220" height="26" as="geometry" />
        </mxCell>
        <mxCell id="BTc3utKMtgOVJJnXJlWc-5" value="mMutexMap" style="text;html=1;strokeColor=none;fillColor=none;spacingLeft=4;spacingRight=4;whiteSpace=wrap;overflow=hidden;rotatable=0;points=[[0,0.5],[1,0.5]];portConstraint=eastwest;" vertex="1" parent="BTc3utKMtgOVJJnXJlWc-0">
          <mxGeometry y="130" width="220" height="26" as="geometry" />
        </mxCell>
        <mxCell id="BTc3utKMtgOVJJnXJlWc-6" value="&lt;font color=&quot;#ff1100&quot;&gt;mvpKeyFrameOrigins向量&lt;/font&gt;" style="text;html=1;strokeColor=none;fillColor=none;spacingLeft=4;spacingRight=4;whiteSpace=wrap;overflow=hidden;rotatable=0;points=[[0,0.5],[1,0.5]];portConstraint=eastwest;" vertex="1" parent="BTc3utKMtgOVJJnXJlWc-0">
          <mxGeometry y="156" width="220" height="26" as="geometry" />
        </mxCell>
        <mxCell id="BTc3utKMtgOVJJnXJlWc-9" value="&lt;font color=&quot;#ff1605&quot;&gt;mMutexMapUpdate&lt;/font&gt;" style="text;html=1;strokeColor=none;fillColor=none;spacingLeft=4;spacingRight=4;whiteSpace=wrap;overflow=hidden;rotatable=0;points=[[0,0.5],[1,0.5]];portConstraint=eastwest;" vertex="1" parent="BTc3utKMtgOVJJnXJlWc-0">
          <mxGeometry y="182" width="220" height="26" as="geometry" />
        </mxCell>
        <mxCell id="BTc3utKMtgOVJJnXJlWc-10" value="&lt;font color=&quot;#ff1605&quot;&gt;mMutexPointCreation用于避免同时创建多个点时造成的id矛盾&lt;/font&gt;" style="text;html=1;strokeColor=none;fillColor=none;spacingLeft=4;spacingRight=4;whiteSpace=wrap;overflow=hidden;rotatable=0;points=[[0,0.5],[1,0.5]];portConstraint=eastwest;" vertex="1" parent="BTc3utKMtgOVJJnXJlWc-0">
          <mxGeometry y="208" width="220" height="42" as="geometry" />
        </mxCell>
        <mxCell id="BTc3utKMtgOVJJnXJlWc-12" value="Map()" style="swimlane;html=1;fontStyle=0;childLayout=stackLayout;horizontal=1;startSize=26;fillColor=#e0e0e0;horizontalStack=0;resizeParent=1;resizeLast=0;collapsible=1;marginBottom=0;swimlaneFillColor=#ffffff;align=center;rounded=1;shadow=0;comic=0;labelBackgroundColor=none;strokeWidth=1;fontFamily=Verdana;fontSize=12" vertex="1" parent="5srHFtmBPw0Hif0gjCAh-1">
          <mxGeometry x="320" y="10" width="220" height="60" as="geometry" />
        </mxCell>
        <mxCell id="BTc3utKMtgOVJJnXJlWc-13" value="初始化mnMaxKFid为0" style="text;html=1;strokeColor=none;fillColor=none;spacingLeft=4;spacingRight=4;whiteSpace=wrap;overflow=hidden;rotatable=0;points=[[0,0.5],[1,0.5]];portConstraint=eastwest;" vertex="1" parent="BTc3utKMtgOVJJnXJlWc-12">
          <mxGeometry y="26" width="220" height="26" as="geometry" />
        </mxCell>
      </root>
    </mxGraphModel>
  </diagram>
</mxfile>
